<?xml version="1.0" encoding="UTF-8" standalone="no"?>
<!-- Created with Inkscape (http://www.inkscape.org/) -->

<svg
   width="247.46059mm"
   height="153.62682mm"
   viewBox="0 0 247.46059 153.62682"
   version="1.1"
   id="svg5"
   xml:space="preserve"
   sodipodi:docname="AUDI UNION 4.svg"
   inkscape:version="1.2.2 (732a01da63, 2022-12-09)"
   xmlns:inkscape="http://www.inkscape.org/namespaces/inkscape"
   xmlns:sodipodi="http://sodipodi.sourceforge.net/DTD/sodipodi-0.dtd"
   xmlns="http://www.w3.org/2000/svg"
   xmlns:svg="http://www.w3.org/2000/svg"><sodipodi:namedview
     id="namedview16"
     pagecolor="#ffffff"
     bordercolor="#666666"
     borderopacity="1.0"
     inkscape:showpageshadow="2"
     inkscape:pageopacity="0.0"
     inkscape:pagecheckerboard="0"
     inkscape:deskcolor="#d1d1d1"
     inkscape:document-units="mm"
     showgrid="false"
     showguides="true"
     inkscape:zoom="0.64793146"
     inkscape:cx="429.82941"
     inkscape:cy="337.99871"
     inkscape:window-width="1920"
     inkscape:window-height="1057"
     inkscape:window-x="-8"
     inkscape:window-y="-8"
     inkscape:window-maximized="1"
     inkscape:current-layer="g267" /><defs
     id="defs2" /><g
     id="layer1"
     transform="translate(-21.419985,-21.321753)"><rect
       style="font-size:45.8611px;line-height:83%;font-family:Corbel;-inkscape-font-specification:Corbel;letter-spacing:0.616479px;word-spacing:0px;fill:#1a1a1a;fill-opacity:1;fill-rule:evenodd;stroke:#ffffff;stroke-width:1.96303;stroke-linecap:butt;stroke-linejoin:miter;stroke-dasharray:none;stroke-opacity:1"
       id="rect1020"
       width="245.49756"
       height="151.66379"
       x="22.401499"
       y="22.303267"
       ry="2.0277684" /><text
       xml:space="preserve"
       style="font-size:45.8611px;line-height:83%;font-family:Corbel;-inkscape-font-specification:Corbel;letter-spacing:0.616479px;word-spacing:0px;fill:none;stroke:#000000;stroke-width:0.264583px;stroke-linecap:butt;stroke-linejoin:miter;stroke-opacity:1"
       x="47.33543"
       y="94.142632"
       id="text356"><tspan
         id="tspan354"
         style="font-style:normal;font-variant:normal;font-weight:bold;font-stretch:normal;font-size:45.8611px;font-family:'Leelawadee UI';-inkscape-font-specification:'Leelawadee UI Bold';fill:#ffffff;fill-opacity:1;stroke:none;stroke-width:0.264583px"
         x="47.33543"
         y="94.142632">AUD</tspan><tspan
         style="font-style:normal;font-variant:normal;font-weight:bold;font-stretch:normal;font-size:45.8611px;font-family:'Leelawadee UI';-inkscape-font-specification:'Leelawadee UI Bold';fill:#ffffff;fill-opacity:1;stroke:none;stroke-width:0.264583px"
         x="47.33543"
         y="133.67958"
         id="tspan408"
         dx="0 0 6.0700002 0 0 0 -7.4299998">  UN  ON</tspan></text><g
       id="g1659"
       transform="matrix(0.07277638,0,0,0.07321323,121.86956,56.668166)"
       style="display:inline"><path
         id="path1637"
         style="fill:#ffffff;fill-opacity:1"
         d="m 391.1659,322.96088 v 19.27792 c 16.65711,4.5054 31.36658,13.94221 41.44695,28.36301 7.75906,11.098 11.41179,23.85566 12.88964,37.19873 1.7614,15.90065 0.80125,32.55896 0.75105,48.55437 l -0.0725,81.2613 0.28418,202.68493 c 0.006,39.77251 -0.24517,79.58199 0.23778,119.35026 -0.10413,17.96827 -0.45429,59.28403 -0.22038,81.2613 -7.89908,13.78887 -11.25074,29.60964 -9.38088,45.72126 2.29598,19.79124 11.98081,35.97954 26.78262,48.94294 17.31558,12.8891 37.03903,19.5394 58.77329,16.3143 19.40648,-2.8814 37.37738,-13.9791 48.90815,-29.8332 11.55409,-15.8858 16.20256,-36.05359 13.09553,-55.42401 -1.07814,-6.7231 -3.34939,-13.77244 -6.51587,-20.48714 0.23795,-15.63698 -0.21142,-52.38034 -0.24648,-64.6628 L 577.6264,790.5171 577.5771,538.14687 577.5452,441.4905 c 0.0898,-14.17816 -1.2159,-29.16726 1.10483,-43.16653 2.33628,-14.09684 9.32785,-27.15107 19.69259,-36.98124 9.79715,-9.29235 21.83612,-14.80369 34.75999,-16.78699 0,0 0.11993,-21.24637 -0.22618,-20.9192 -26.06156,0.22298 -52.21963,-0.53916 -78.2165,-0.54807 -54.49392,-0.0184 -108.99921,0.4911 -163.49404,-0.12759 z m 123.83047,28.16293 c 9.92653,0.51027 19.08281,4.1118 27.50177,10.33201 1.13737,0.88529 2.23846,1.83587 3.29709,2.84181 7.41037,7.04158 12.79929,16.84219 14.85281,26.70143 2.46144,11.81784 -0.0551,24.47928 -6.66376,34.5541 -7.20468,10.98629 -18.3059,18.92068 -31.20772,21.59776 -14.2821,2.96419 -26.96248,-0.36836 -38.97051,-8.29924 -10.36686,-7.74635 -17.3832,-19.04009 -19.46351,-31.84859 -2.03151,-12.50514 1.62223,-25.70536 8.9952,-35.90251 7.51511,-10.39302 18.77985,-17.49364 31.47451,-19.44031 3.48055,-0.53368 6.87529,-0.70655 10.18412,-0.53646 z m -5.36174,583.22373 c 10.45304,-0.33476 19.84885,3.02829 28.40941,9.56936 1.62493,1.23116 3.15741,2.59656 4.5875,4.06843 6.19702,6.37806 10.46359,14.80623 11.9269,23.48554 1.91979,11.38227 -0.81774,23.24634 -7.5105,32.64023 -6.50323,9.128 -16.0905,15.2739 -27.15669,17.135 -13.22852,2.2246 -25.05106,-0.9815 -35.83582,-8.7343 -8.89609,-6.7818 -14.61641,-17.14188 -16.30852,-28.13099 -1.75996,-11.42611 1.2202,-23.50807 8.17456,-32.75912 7.15378,-9.5155 17.37811,-15.36645 29.16626,-16.90298 1.53707,-0.20029 3.05361,-0.32335 4.5469,-0.37117 z" /><path
         id="path1619"
         d="m 632.75464,225.01118 -241.58874,0.0319 v 12.0545 l 241.36546,0.66696 z"
         style="fill:#ffffff;fill-opacity:1" /><path
         id="path1621"
         d="m 391.1659,293.10157 v 13.15353 l 241.84103,1.68769 -0.45527,-14.82962 z"
         style="fill:#ffffff;fill-opacity:1" /><path
         id="path1625"
         d="m 391.1659,254.9111 v 18.70086 l 243.31123,1.14832 -0.11309,-19.75928 z"
         style="fill:#ffffff;fill-opacity:1" /><path
         id="path1627"
         style="fill:#ffffff;fill-opacity:1"
         d="m 633.55789,69.654019 -53.14767,0.0087 -5.39364,3.172389 -3.92344,-3.16949 -61.90508,0.0087 a 19.753054,7.0054431 0 0 1 -10.564,1.113526 19.753054,7.0054431 0 0 1 -10.5495,-1.107727 l -63.65947,0.0087 -4.01623,3.46237 -1.02653,-3.46237 -28.20643,0.0058 v 45.123903 l 242.33399,0.51036 z" /><path
         id="path1635"
         d="m 391.1659,123.62233 v 84.58738 l 244.09418,0.84674 -1.6036,-83.85952 z"
         style="fill:#ffffff;fill-opacity:1" /></g></g><g
     id="g267"
     transform="translate(-21.419984,-21.321753)"
     inkscape:highlight-color="#0055ff"><rect
       style="font-size:45.8611px;line-height:83%;font-family:Corbel;-inkscape-font-specification:Corbel;letter-spacing:0.616479px;word-spacing:0px;fill:#1a1a1a;fill-opacity:1;fill-rule:evenodd;stroke:#ffffff;stroke-width:1.96303;stroke-linecap:butt;stroke-linejoin:miter;stroke-dasharray:none;stroke-opacity:1"
       id="rect245"
       width="245.49756"
       height="151.66379"
       x="22.401499"
       y="22.303267"
       ry="2.0277684" /><text
       xml:space="preserve"
       style="font-size:56.4444px;line-height:91.2%;font-family:Corbel;-inkscape-font-specification:Corbel;letter-spacing:0px;word-spacing:0px;display:none;fill:none;stroke:#000000;stroke-width:0.264583px;stroke-linecap:butt;stroke-linejoin:miter;stroke-opacity:1"
       x="57.224689"
       y="88.311203"
       id="text448"
       sodipodi:insensitive="true"><tspan
         sodipodi:role="line"
         id="tspan446"
         style="font-style:normal;font-variant:normal;font-weight:bold;font-stretch:normal;font-size:56.4444px;font-family:Corbel;-inkscape-font-specification:'Corbel Bold';fill:#f3f3f3;fill-opacity:1;stroke:none;stroke-width:0.264583px"
         x="0"
         y="0">AUDI</tspan><tspan
         sodipodi:role="line"
         style="font-style:normal;font-variant:normal;font-weight:bold;font-stretch:normal;font-size:56.4444px;font-family:Corbel;-inkscape-font-specification:'Corbel Bold';fill:#f3f3f3;fill-opacity:1;stroke:none;stroke-width:0.264583px"
         x="0"
         y="0"
         id="tspan450">UNION</tspan></text><g
       aria-label="AUDI
UNION"
       id="text1010"
       style="font-size:56.4444px;line-height:91.2%;font-family:Corbel;-inkscape-font-specification:Corbel;letter-spacing:0px;word-spacing:0px;fill:none;stroke:#000000;stroke-width:0.264583px"
       transform="translate(-1.2971158,-2.1910478)"><path
         id="path1012"
         style="font-weight:bold;-inkscape-font-specification:'Corbel Bold';fill:#f3f3f3;stroke:none"
         d="m 81.944403,57.880734 c -2.073813,0.100604 -4.184106,-0.156817 -6.234004,0.154922 -1.357162,0.501659 -1.464949,2.13715 -2.038764,3.260642 -4.623754,11.660632 -9.262938,23.317288 -13.865904,34.984827 -0.452248,1.500126 1.214364,2.862161 2.63711,2.505632 2.363959,-0.04216 4.745054,0.110463 7.097266,-0.109147 1.402308,-0.441754 1.535638,-2.095707 2.073654,-3.235534 0.774928,-2.017843 1.549855,-4.035686 2.324783,-6.053529 3.710937,0 7.421875,0 11.132813,0 1.112678,2.838095 2.130132,5.723924 3.34375,8.515625 0.765447,1.140774 2.27049,0.871015 3.440439,0.877734 2.016696,-0.04249 4.056453,0.12819 6.057607,-0.119922 1.387119,-0.475802 1.579474,-2.335335 0.836158,-3.432791 C 93.924289,83.110449 89.153472,70.965039 84.284247,58.867063 83.807359,58.068081 82.819396,57.812091 81.944403,57.880734 Z m -2.375,17.046876 c 0.577763,1.603114 1.164592,3.203241 1.779297,4.792968 -1.227864,0 -2.455729,0 -3.683593,0 0.637314,-1.650728 1.24986,-3.310245 1.839843,-4.978515 l 0.03281,0.09446 z" /><path
         id="path1014"
         style="font-weight:bold;-inkscape-font-specification:'Corbel Bold';fill:#f3f3f3;stroke:none"
         d="m 132.59286,57.867063 c -2.27228,0.142728 -4.5807,-0.170561 -6.83234,0.19019 -1.25624,0.441685 -1.34608,1.970736 -1.24784,3.095356 -0.0429,7.369973 0.0947,14.74321 -0.0937,22.110938 -0.16814,2.19483 -0.98536,4.94125 -3.30133,5.842888 -2.26081,0.967946 -4.96518,0.853045 -7.16634,-0.216106 -1.96916,-1.1774 -2.6658,-3.588318 -2.78392,-5.731655 -0.24744,-2.807857 -0.0234,-5.791726 -0.10794,-8.669736 -0.0319,-5.046281 0.0815,-10.104256 -0.0833,-15.143031 -0.29169,-1.252746 -1.761,-1.596475 -2.87658,-1.462543 -2.16521,0.07779 -4.3584,-0.130168 -6.50549,0.13757 -1.25724,0.424151 -1.43271,1.950052 -1.30583,3.086754 0.0435,7.79462 -0.0963,15.592745 0.0959,23.384978 0.29033,4.62794 2.30631,9.402663 6.27288,12.033906 4.18884,2.824215 9.49503,3.290071 14.39719,2.744352 4.35145,-0.508199 8.77147,-2.460573 11.2977,-6.174224 2.3226,-3.297743 2.97048,-7.439144 2.91673,-11.392298 0.0347,-6.536777 0.0154,-13.074146 0.012,-19.611154 -0.10589,-1.029759 0.15566,-2.131175 -0.21322,-3.112904 -0.44062,-0.911396 -1.55229,-1.150601 -2.47461,-1.113281 z" /><path
         id="path1016"
         style="font-weight:bold;-inkscape-font-specification:'Corbel Bold';fill:#f3f3f3;stroke:none"
         d="m 142.82724,57.888547 c -0.91518,0.01464 -2.05754,-0.01279 -2.54493,0.931641 -0.64532,1.262558 -0.21356,2.730764 -0.33437,4.083203 0.005,11.403589 -0.028,22.809792 0.0375,34.211719 0.15564,1.350305 1.72411,1.872222 2.90039,1.671874 6.58798,-0.09404 13.371,0.500989 19.73242,-1.603515 4.95273,-1.562707 9.38055,-5.148147 11.35513,-10.025071 2.00816,-4.750646 2.18791,-10.181032 0.89836,-15.143671 -1.35286,-4.914787 -4.82662,-9.228338 -9.44857,-11.42618 -5.1548,-2.57009 -11.05604,-2.763249 -16.70257,-2.701696 -1.96513,0.04312 -3.92845,-8.9e-5 -5.89336,0.0017 z m 8.83203,9.671875 c 3.36842,0.003 7.04508,0.359517 9.79686,2.551129 2.51488,1.961903 3.36121,5.311891 3.26501,8.371907 -0.0386,2.809245 -0.66224,5.896756 -2.8607,7.838683 -1.91696,1.813751 -4.58838,2.39994 -7.13334,2.64264 -1.33144,0.128859 -2.67039,0.151905 -4.00729,0.150329 0,-7.184896 1e-5,-14.369792 0,-21.554688 0.31316,0 0.62631,0 0.93946,0 z" /><path
         id="path1018"
         style="font-weight:bold;-inkscape-font-specification:'Corbel Bold';fill:#f3f3f3;stroke:none"
         d="m 186.95028,57.876828 c -2.26632,0.09457 -4.56105,-0.130749 -6.80932,0.144106 -1.25731,0.424151 -1.43253,1.950052 -1.30593,3.086754 0.006,12.002155 -0.0303,24.006929 0.0371,36.007422 0.16445,1.398789 1.79941,1.876155 3.00038,1.670344 2.16055,-0.07256 4.35447,0.172432 6.49181,-0.164123 1.2527,-0.444285 1.34198,-1.970936 1.24416,-3.094503 -0.005,-11.984014 0.0277,-23.969947 -0.0352,-35.952734 -0.12668,-1.263381 -1.50334,-1.808754 -2.62305,-1.697266 z" /><path
         id="path1020"
         style="font-weight:bold;-inkscape-font-specification:'Corbel Bold';fill:#f3f3f3;stroke:none"
         d="m 91.90625,100.55273 c -2.340112,0.16639 -4.72208,-0.17408 -7.040934,0.2108 -1.350868,0.4805 -1.624463,2.12812 -1.466986,3.37944 -0.04169,7.36675 0.09283,14.73653 -0.09364,22.10117 -0.152744,2.04375 -0.919356,4.78972 -3.181454,5.61748 -2.18472,0.88389 -4.791562,0.7928 -6.889189,-0.28102 -1.950737,-1.22238 -2.483295,-3.67357 -2.585568,-5.81756 -0.188644,-3.08472 0.0019,-6.17725 -0.07702,-9.26538 -0.01946,-4.71078 0.06289,-9.42741 -0.06951,-14.13438 -0.295282,-1.41484 -1.91493,-1.97634 -3.209182,-1.78362 -2.159864,0.0674 -4.3396,-0.11143 -6.486477,0.12004 -1.410762,0.39241 -1.83473,2.07118 -1.634284,3.35967 0.03954,7.81925 -0.09373,15.64196 0.09533,23.45885 0.294517,4.72207 2.366418,9.58972 6.406022,12.27638 4.218773,2.84219 9.559923,3.34788 14.502975,2.81361 4.438798,-0.50001 8.961155,-2.45486 11.56202,-6.22667 2.369461,-3.29116 3.080806,-7.45079 3.040558,-11.42922 0.04766,-6.21331 0.003,-12.42736 0.01952,-18.64098 -0.04377,-1.38605 0.05759,-2.79846 -0.13046,-4.16681 -0.371526,-1.14318 -1.646187,-1.64251 -2.761719,-1.5918 z" /><path
         id="path1022"
         style="font-weight:bold;-inkscape-font-specification:'Corbel Bold';fill:#f3f3f3;stroke:none"
         d="m 106.72852,100.60352 c -2.09528,0.0311 -4.21086,-0.14401 -6.29493,0.10546 -1.391948,0.41222 -1.791362,2.07163 -1.60158,3.35 0.0092,12.0484 -0.03899,24.09937 0.04885,36.1461 0.207436,1.48267 1.90511,2.14499 3.23671,1.90669 2.21243,-0.0728 4.45959,0.17809 6.64797,-0.17413 1.35073,-0.4805 1.62475,-2.12811 1.46676,-3.37944 -0.0261,-5.91129 0.056,-11.82327 -0.0546,-17.73398 3.98355,6.03032 8.32277,11.81515 12.4336,17.75781 0.78955,1.0204 1.43896,2.18452 2.36719,3.07813 1.23945,0.80775 2.7732,0.32135 4.15035,0.44527 1.74377,-0.0534 3.53913,0.19269 5.24613,-0.2109 1.30642,-0.56714 1.49103,-2.19078 1.35161,-3.43633 -0.008,-11.98455 0.0363,-23.97093 -0.0469,-35.95429 -0.19153,-1.44646 -1.82338,-2.12652 -3.13452,-1.92359 -2.24708,0.0927 -4.529,-0.17497 -6.75212,0.18321 -1.35073,0.4805 -1.62474,2.12812 -1.46676,3.37944 0.0269,5.91194 -0.0578,11.82461 0.0565,17.73594 -4.13353,-6.23024 -8.61532,-12.22246 -12.86749,-18.36988 -0.6922,-0.85148 -1.22015,-1.89087 -2.0954,-2.56176 -0.81195,-0.48299 -1.79034,-0.385 -2.6914,-0.34375 z" /><path
         id="path1024"
         style="font-weight:bold;-inkscape-font-specification:'Corbel Bold';fill:#f3f3f3;stroke:none"
         d="m 147.77148,100.58594 c -2.07741,0.0506 -4.17428,-0.11059 -6.23862,0.11376 -1.41087,0.39241 -1.83452,2.07117 -1.63447,3.35967 0.009,12.04827 -0.0388,24.09911 0.0489,36.14571 0.20743,1.48267 1.90511,2.14499 3.2367,1.90669 2.21244,-0.0728 4.45959,0.17809 6.64798,-0.17413 1.34881,-0.48199 1.62715,-2.12751 1.4669,-3.37944 -0.008,-12.01789 0.0365,-24.03759 -0.0469,-36.05429 -0.19128,-1.44747 -1.82165,-2.12272 -3.13265,-1.92679 -0.11594,0.003 -0.23188,0.006 -0.34782,0.009 z" /><path
         id="path1026"
         style="font-weight:bold;-inkscape-font-specification:'Corbel Bold';fill:#f3f3f3;stroke:none"
         d="m 173.65234,99.933594 c -6.05998,-0.01565 -12.30187,2.658166 -15.82146,7.714386 -3.62973,5.11209 -4.53008,11.71811 -3.70369,17.82303 0.75233,5.53092 3.57056,10.98918 8.34944,14.06132 4.94924,3.22967 11.25685,3.92169 16.95425,2.66366 4.75782,-1.08406 9.14391,-3.99903 11.66123,-8.22239 3.2068,-5.26938 3.87517,-11.77773 2.81623,-17.77175 -0.94383,-5.17103 -3.72157,-10.17277 -8.21572,-13.0538 -3.54307,-2.31684 -7.83473,-3.323334 -12.04028,-3.214456 z m 0.47071,10.291016 c 3.01457,-0.11372 6.14292,1.55727 7.32486,4.40928 1.58928,3.25273 1.58736,7.03101 1.01693,10.49306 -0.38818,1.91451 -1.15506,3.69212 -2.53678,5.13473 -2.02495,2.08218 -5.24487,2.58439 -7.99432,1.97577 -2.45987,-0.4975 -4.48831,-2.3496 -5.40872,-4.65715 -0.83838,-1.92231 -1.09897,-4.05 -1.10591,-6.04044 -0.0537,-3.42262 0.66931,-7.20333 3.35498,-9.56872 1.46229,-1.26851 3.45226,-1.73961 5.34896,-1.74653 z" /><path
         id="path1028"
         style="font-weight:bold;-inkscape-font-specification:'Corbel Bold';fill:#f3f3f3;stroke:none"
         d="m 230.16992,100.67578 c -2.08257,0.058 -4.19827,-0.16041 -6.25769,0.16402 -1.32286,0.47005 -1.55702,2.07698 -1.41211,3.29536 0.0311,6.01155 -0.0686,12.02398 0.0624,18.03476 -4.22274,-6.37427 -8.8072,-12.50145 -13.15486,-18.78862 -0.64721,-0.79624 -1.14445,-1.77688 -1.97991,-2.38325 -1.20786,-0.63559 -2.60769,-0.18543 -3.90234,-0.32272 -1.69896,0.0521 -3.43327,-0.14393 -5.10742,0.15475 -1.31675,0.50282 -1.57444,2.09942 -1.41022,3.33515 0.0103,12.01547 -0.0412,24.03445 0.0508,36.04766 0.21117,1.42997 1.86271,2.04534 3.14297,1.81408 2.1927,-0.0619 4.4154,0.14541 6.58815,-0.1459 1.35773,-0.45499 1.60971,-2.10238 1.44638,-3.34084 -0.0311,-6.00164 0.0686,-12.00417 -0.0603,-18.00507 3.98095,6.04412 8.33076,11.83385 12.44536,17.78601 0.83197,1.0817 1.52653,2.30581 2.49214,3.26477 1.22157,0.80853 2.74145,0.2904 4.09961,0.438 1.7278,-0.0513 3.49874,0.16351 5.19538,-0.18844 1.30907,-0.54338 1.4541,-2.15902 1.32224,-3.38706 -0.0106,-12.00181 0.0411,-24.00803 -0.0489,-36.00703 -0.2349,-1.38952 -1.81716,-1.96356 -3.07166,-1.77996 -0.14669,0.005 -0.29337,0.01 -0.44006,0.0143 z" /></g></g></svg>
