<?xml version="1.0" encoding="UTF-8" standalone="no"?>
<!-- Created with Inkscape (http://www.inkscape.org/) -->

<svg
   width="169.84206mm"
   height="134.20071mm"
   viewBox="0 0 169.84206 134.20071"
   version="1.1"
   id="svg5"
   xml:space="preserve"
   inkscape:version="1.2.2 (732a01da63, 2022-12-09)"
   sodipodi:docname="finger on nkey.svg"
   xmlns:inkscape="http://www.inkscape.org/namespaces/inkscape"
   xmlns:sodipodi="http://sodipodi.sourceforge.net/DTD/sodipodi-0.dtd"
   xmlns="http://www.w3.org/2000/svg"
   xmlns:svg="http://www.w3.org/2000/svg"><sodipodi:namedview
     id="namedview7"
     pagecolor="#ffffff"
     bordercolor="#666666"
     borderopacity="1.0"
     inkscape:showpageshadow="2"
     inkscape:pageopacity="0.0"
     inkscape:pagecheckerboard="0"
     inkscape:deskcolor="#d1d1d1"
     inkscape:document-units="mm"
     showgrid="false"
     inkscape:zoom="0.6412063"
     inkscape:cx="300.21539"
     inkscape:cy="492.82111"
     inkscape:window-width="1920"
     inkscape:window-height="1057"
     inkscape:window-x="-8"
     inkscape:window-y="-8"
     inkscape:window-maximized="1"
     inkscape:current-layer="layer1" /><defs
     id="defs2"><inkscape:path-effect
       effect="powerstroke"
       id="path-effect1945"
       is_visible="true"
       lpeversion="1"
       offset_points="0.36921156,0.42742596 | 0.54128465,0.56140953 | 0.8,0.52916503"
       not_jump="false"
       sort_points="true"
       interpolator_type="CentripetalCatmullRom"
       interpolator_beta="0.2"
       start_linecap_type="zerowidth"
       linejoin_type="round"
       miter_limit="4"
       scale_width="1"
       end_linecap_type="zerowidth" /><inkscape:path-effect
       effect="powerstroke"
       id="path-effect1941"
       is_visible="true"
       lpeversion="1"
       offset_points="0.028029179,0.15500196 | 0.87125197,0.35975255 | 1.3379241,0.18884228"
       not_jump="false"
       sort_points="true"
       interpolator_type="CentripetalCatmullRom"
       interpolator_beta="0.2"
       start_linecap_type="zerowidth"
       linejoin_type="round"
       miter_limit="4"
       scale_width="1"
       end_linecap_type="zerowidth" /><inkscape:path-effect
       effect="powerstroke"
       id="path-effect1926"
       is_visible="true"
       lpeversion="1"
       offset_points="4,0.39687499"
       not_jump="false"
       sort_points="true"
       interpolator_type="CentripetalCatmullRom"
       interpolator_beta="0.2"
       start_linecap_type="zerowidth"
       linejoin_type="round"
       miter_limit="4"
       scale_width="1"
       end_linecap_type="zerowidth" /><inkscape:path-effect
       effect="powerstroke"
       id="path-effect1924"
       is_visible="true"
       lpeversion="1"
       offset_points="1.1550443,0.27091892 | 2.0006304,0.39687499 | 2.6261452,0.33950912"
       not_jump="false"
       sort_points="true"
       interpolator_type="CentripetalCatmullRom"
       interpolator_beta="0.2"
       start_linecap_type="zerowidth"
       linejoin_type="round"
       miter_limit="4"
       scale_width="1"
       end_linecap_type="zerowidth" /><inkscape:path-effect
       effect="powerstroke"
       id="path-effect1922"
       is_visible="true"
       lpeversion="1"
       offset_points="0.4873096,0.18079659 | 1,0.39687499 | 1.6868444,0.36026072"
       not_jump="false"
       sort_points="true"
       interpolator_type="CentripetalCatmullRom"
       interpolator_beta="0.2"
       start_linecap_type="zerowidth"
       linejoin_type="round"
       miter_limit="4"
       scale_width="1"
       end_linecap_type="zerowidth" /><inkscape:path-effect
       effect="powerstroke"
       id="path-effect1920"
       is_visible="true"
       lpeversion="1"
       offset_points="0.29327987,0.15392621 | 0.56882607,0.23871486 | 0.82364216,0.10368303"
       not_jump="false"
       sort_points="true"
       interpolator_type="CentripetalCatmullRom"
       interpolator_beta="0.2"
       start_linecap_type="zerowidth"
       linejoin_type="round"
       miter_limit="4"
       scale_width="1"
       end_linecap_type="zerowidth" /><inkscape:path-effect
       effect="powerstroke"
       id="path-effect1916"
       is_visible="true"
       lpeversion="1"
       offset_points="0.33416013,0.24382954 | 1,0.39687499 | 1.9518175,0.13851069"
       not_jump="false"
       sort_points="true"
       interpolator_type="CentripetalCatmullRom"
       interpolator_beta="0.2"
       start_linecap_type="zerowidth"
       linejoin_type="round"
       miter_limit="4"
       scale_width="1"
       end_linecap_type="zerowidth" /></defs><g
     inkscape:label="Layer 1"
     inkscape:groupmode="layer"
     id="layer1"
     transform="translate(-25.898783,-91.617208)"><path
       id="path1912"
       style="fill:#000000;fill-opacity:1;fill-rule:evenodd;stroke:#000000;stroke-width:0.79375;stroke-dasharray:none"
       d="M 26.96649,166.40053 86.107941,152.3436 c 0.342282,-0.0814 0.766454,0.0943 0.950877,0.39376 l 32.875822,53.38474 c 0.18441,0.29946 -0.5311,1.48492 -0.87053,1.57689 L 53.7539,225.39434 c -0.339448,0.092 -0.802588,-0.0749 -0.950877,-0.39376 L 26.334135,168.08001 c -0.148293,-0.31889 0.290198,-1.59816 0.632355,-1.67948 z"
       sodipodi:nodetypes="sssssssss" /><path
       id="rect410"
       style="fill:#ffffff;fill-opacity:1;fill-rule:evenodd;stroke:#000000;stroke-width:0.814647;stroke-dasharray:none"
       d="m -67.629542,177.07686 61.6571171,-0.95598 c 0.3533674,-0.005 0.64071,0.28131 0.6348093,0.63481 l -1.0596012,63.4785 c -0.0059,0.35349 -0.2796229,0.62311 -0.6348093,0.63481 l -68.3387879,2.252 c -0.355186,0.0117 -0.678178,-0.27192 -0.634809,-0.63481 l 7.741272,-64.77452 c 0.04337,-0.3629 0.281442,-0.62933 0.634809,-0.63481 z"
       sodipodi:nodetypes="sssssssss"
       transform="matrix(0.97298055,-0.23088707,0.52491313,0.85115581,0,0)" /><path
       id="path1794"
       style="fill:none;fill-opacity:1;fill-rule:evenodd;stroke:#000000;stroke-width:0.79375;stroke-linejoin:round;stroke-dasharray:none"
       d="m 32.522757,168.75522 52.856865,-13.78419 c 0.299505,-0.0781 0.677737,0.0817 0.835787,0.35153 l 28.381511,48.45409 c 0.15805,0.26983 0.0484,0.53112 -0.25001,0.61323 l -57.405325,15.79761 c -0.298362,0.0821 -0.702088,-0.0684 -0.835786,-0.35152 L 32.272747,169.36845 c -0.133712,-0.28314 -0.0494,-0.53515 0.25001,-0.61323 z"
       sodipodi:nodetypes="sssssssss" /><path
       id="path1792"
       style="fill:#000000;fill-opacity:1;fill-rule:nonzero;stroke:none;stroke-width:0.79375;stroke-dasharray:none"
       d="m 37.830627,168.16697 c 9.750277,-2.57692 25.819328,-6.82383 45.135939,-11.92905 0.0126,-0.003 0.0337,-0.006 0.0632,-0.004 0.02803,0.003 0.05971,0.01 0.09165,0.0225 0.0309,0.0123 0.05789,0.0281 0.07887,0.0448 0.02063,0.0164 0.03124,0.0304 0.03576,0.0381 7.806504,13.27181 15.858391,26.96079 23.682571,40.26267 0.009,0.0152 0.007,0.0172 0.005,0.006 -0.001,-0.0129 -2.8e-4,-0.0341 0.01,-0.0574 0.0102,-0.0237 0.0241,-0.0374 0.031,-0.0427 0.007,-0.005 0.002,3e-5 -0.0173,0.005 -14.997085,3.91435 -31.716458,8.27822 -48.971382,12.78188 -0.01479,0.004 -0.03914,0.007 -0.07159,0.004 -0.03189,-0.003 -0.06554,-0.0101 -0.09687,-0.022 -0.03156,-0.012 -0.05523,-0.0265 -0.07059,-0.039 -0.01474,-0.012 -0.01775,-0.0192 -0.01629,-0.0162 -7.015128,-14.53261 -13.793771,-28.57531 -19.847123,-41.1155 -0.01141,-0.0236 -0.01208,-0.0344 -0.01178,-0.0314 4.67e-4,0.005 6.48e-4,0.0218 -0.0086,0.0445 -0.01066,0.0261 -0.02668,0.0424 -0.03596,0.0497 -0.0087,0.007 -0.0075,0.003 0.01361,-0.003 z m -0.20281,-0.7674 c -0.08535,0.0225 -0.195992,0.0639 -0.298962,0.14425 -0.08353,0.0651 -0.161759,0.15609 -0.21086,0.27648 -0.04269,0.10468 -0.05762,0.2179 -0.04641,0.33252 0.01008,0.10306 0.04067,0.20329 0.08693,0.29914 6.053355,12.54019 12.831999,26.5829 19.847107,41.11547 0.05678,0.11765 0.139126,0.21245 0.228735,0.28571 0.08877,0.0726 0.188596,0.12738 0.289863,0.16604 0.101415,0.0387 0.209267,0.0632 0.31733,0.0717 0.10852,0.009 0.222903,0.002 0.33466,-0.0276 17.254972,-4.50367 33.974345,-8.86754 48.971441,-12.78189 0.10353,-0.027 0.20792,-0.0726 0.30061,-0.1438 0.0894,-0.0687 0.16607,-0.16028 0.21477,-0.27387 0.0472,-0.11014 0.0629,-0.22891 0.0493,-0.34665 -0.0132,-0.11369 -0.0528,-0.22066 -0.1095,-0.31707 -7.82418,-13.30187 -15.876067,-26.99085 -23.682553,-40.26263 -0.06114,-0.10397 -0.140865,-0.18914 -0.225215,-0.25637 -0.08671,-0.0691 -0.182551,-0.12275 -0.27982,-0.16151 -0.100993,-0.0402 -0.207349,-0.066 -0.313694,-0.0756 -0.111773,-0.0101 -0.226606,-0.003 -0.337812,0.0266 -19.316559,5.10521 -35.385609,9.35212 -45.135887,11.92904 z"
       sodipodi:nodetypes="sssssssss"
       inkscape:path-effect="#path-effect1926"
       inkscape:original-d="m 37.729218,167.78327 45.135939,-11.92905 c 0.254504,-0.0673 0.582903,0.0632 0.712994,0.28441 l 23.682559,40.26264 c 0.13009,0.22116 0.0412,0.42973 -0.21328,0.49616 l -48.971393,12.78188 c -0.254527,0.0664 -0.601803,-0.054 -0.712994,-0.28441 L 37.515939,168.27944 c -0.111194,-0.23036 -0.04112,-0.42894 0.213279,-0.49617 z" /><path
       style="fill:#000000;fill-opacity:1;fill-rule:nonzero;stroke:none;stroke-width:0.79375;stroke-linecap:round;stroke-linejoin:round;stroke-dasharray:none;stroke-opacity:1"
       d="m 51.071961,199.149 c 0.310849,0.87743 0.826912,2.41136 1.400859,3.81524 0.2122,0.51904 0.437629,1.05082 0.681157,1.60406 0.647765,1.47159 1.334191,2.8947 2.244645,4.73833 0.116063,0.23429 0.226073,0.52037 0.323693,0.87688 0.08622,0.31489 0.158712,0.66961 0.21897,1.07257 0.115354,0.77138 0.173582,1.63397 0.219298,2.57397 0.110206,2.26602 0.268879,4.54429 0.448078,5.25088 0.07524,0.29667 0.174981,0.44928 0.208958,0.5315 0.0097,-0.0938 0.06032,-0.2563 0.06622,-0.56341 0.01381,-0.71929 -0.01132,-2.94821 -0.04037,-5.23983 -0.01195,-0.94328 -0.04707,-1.84413 -0.149687,-2.65663 -0.05403,-0.42775 -0.124862,-0.81604 -0.215422,-1.16913 -0.102739,-0.40059 -0.226472,-0.73849 -0.367411,-1.02698 -0.850127,-1.73714 -1.712266,-3.35797 -2.394526,-4.65896 -0.28614,-0.54564 -0.538085,-1.02862 -0.800788,-1.53752 -0.647571,-1.25446 -1.511777,-2.91717 -1.843675,-3.61097 z"
       id="path1797"
       inkscape:path-effect="#path-effect1916"
       inkscape:original-d="m 51.071961,199.149 c 1.76181,4.24572 2.979221,6.51715 4.682825,9.98254 1.122653,2.28365 0.515711,6.72427 1.062833,10.48089"
       sodipodi:nodetypes="csc" /><path
       style="fill:#000000;fill-rule:nonzero;stroke:none;stroke-width:0.79375;stroke-linecap:round;stroke-linejoin:round;stroke-dasharray:none;stroke-opacity:1"
       d="m 41.214207,178.34104 c -0.0563,-0.12584 -0.134533,-0.30497 -0.251961,-0.58039 -0.0877,-0.20569 -0.188049,-0.44343 -0.314285,-0.74387 -0.182783,-0.43503 -0.495213,-1.182 -0.771055,-1.83404 -0.584566,-1.38181 -1.214288,-2.8366 -1.788773,-4.04122 -0.09009,-0.20263 -0.172418,-0.41075 -0.242657,-0.59162 -0.04765,-0.1227 -0.09429,-0.24584 -0.139941,-0.36539 -0.123486,-0.32335 -0.245194,-0.63486 -0.384225,-0.902 -0.07207,-0.13849 -0.151162,-0.26971 -0.240749,-0.38664 -0.09163,-0.1196 -0.197959,-0.22912 -0.32387,-0.31582 -0.130682,-0.09 -0.279494,-0.15315 -0.445651,-0.17745 -0.169681,-0.0248 -0.341306,-0.007 -0.510315,0.0457 -2e-6,0 -0.005,0.002 -0.005,0.002 -1.374327,0.43122 -2.093236,0.54319 -2.455886,0.61727 -0.10398,0.0212 -0.179033,0.0392 -0.236596,0.0602 -0.0574,0.0209 -0.100349,0.0495 -0.133104,0.0823 -0.05763,0.0577 -0.129285,0.21676 -0.135213,0.22756 -0.02028,0.0369 -0.0536,0.15983 0.08125,0.27439 0.04912,0.0417 0.115898,0.0758 0.197023,0.0947 0.08068,0.0188 0.181817,0.0275 0.308379,0.024 0.443763,-0.0123 1.209722,-0.17255 2.614399,-0.62389 -10e-7,1e-5 0.0051,-0.002 0.0051,-0.002 0.07492,-0.025 0.131271,-0.0309 0.173617,-0.029 0.04135,0.002 0.08556,0.0115 0.137057,0.0382 0.05221,0.027 0.112332,0.0717 0.180311,0.14215 0.06636,0.0688 0.135213,0.15685 0.207604,0.26579 0.14256,0.21452 0.279979,0.48025 0.435794,0.79452 0.08702,0.17552 0.08752,0.17737 0.174543,0.35289 0.08811,0.17691 0.194697,0.38501 0.311951,0.58941 0.640468,1.17897 1.321418,2.56188 1.991476,3.92615 0.35342,0.71958 0.627725,1.27777 0.883257,1.7834 0.146094,0.28908 0.266908,0.52285 0.370787,0.71861 0.140215,0.26423 0.237338,0.43602 0.306722,0.55424 z"
       id="path1799"
       inkscape:path-effect="#path-effect1924"
       inkscape:original-d="m 41.214207,178.34104 c -0.650093,-1.26194 -2.100943,-4.66047 -3.339158,-7.09096 -0.636106,-1.24861 -0.96466,-2.73798 -1.954143,-2.42357 -2.65918,0.84497 -3.085953,0.61062 -3.085953,0.61062"
       sodipodi:nodetypes="cssc" /><path
       style="fill:#000000;fill-opacity:1;fill-rule:nonzero;stroke:none;stroke-width:0.79375;stroke-linecap:round;stroke-linejoin:round;stroke-dasharray:none;stroke-opacity:1"
       d="m 104.03459,198.72518 c 0.3402,-0.0721 1.24972,-0.27131 1.90686,-0.36533 0.57331,-0.082 1.03322,-0.10311 1.43005,-0.0606 0.0224,0.002 0.0445,0.005 0.0665,0.008 0.21834,0.0283 0.41751,0.0793 0.60147,0.15165 0.18337,0.0721 0.35355,0.16625 0.51536,0.28329 0.1578,0.11413 0.31266,0.25368 0.46802,0.42388 0.14906,0.16332 0.30311,0.35983 0.46436,0.59848 1.44536,2.0691 2.4583,3.2637 3.12717,3.85627 0.26492,0.23469 0.45986,0.36065 0.60286,0.42157 0.0554,0.0236 0.10843,0.0383 0.15758,0.0455 0.26819,0.0388 0.33851,-0.13269 0.34553,-0.17967 0.006,-0.0402 0.0487,-0.21162 -0.0217,-0.353 -0.0162,-0.0326 -0.0383,-0.0668 -0.0675,-0.10253 -0.0803,-0.0984 -0.20563,-0.21622 -0.43589,-0.44843 -0.60582,-0.61094 -1.55232,-1.64417 -3.06272,-3.70176 -0.19931,-0.26486 -0.4028,-0.48193 -0.60996,-0.65911 -0.21633,-0.18501 -0.43694,-0.32675 -0.66043,-0.43287 -0.22877,-0.10862 -0.45987,-0.17963 -0.69294,-0.22227 -0.23291,-0.0426 -0.4697,-0.0572 -0.71241,-0.0523 -0.0245,5e-4 -0.0491,0.001 -0.0738,0.002 -0.4357,0.0157 -0.90994,0.0995 -1.47701,0.24349 -0.60038,0.15244 -1.58907,0.45835 -1.87145,0.54389 z"
       id="path1801"
       inkscape:path-effect="#path-effect1922"
       inkscape:original-d="m 104.03459,198.72518 c 2.80826,-0.72156 4.36753,-1.1579 5.77531,0.80815 3.03924,4.24448 3.91046,4.37467 3.91046,4.37467"
       sodipodi:nodetypes="csc" /><path
       id="text1857"
       style="font-size:12.3472px;line-height:125%;font-family:Corbel;-inkscape-font-specification:Corbel;letter-spacing:0px;word-spacing:0px;fill:#ffffff;fill-opacity:1;stroke:#000000;stroke-width:0.619616;stroke-linecap:butt;stroke-linejoin:miter;stroke-dasharray:none;stroke-opacity:1"
       sodipodi:type="inkscape:offset"
       inkscape:radius="0.52168101"
       inkscape:original="M 70.365234 184.46289 L 70.365234 193.10742 L 71.378906 193.10742 L 71.378906 186.86133 C 71.378906 186.25442 71.362232 185.85871 71.330078 185.67383 L 71.365234 185.67383 C 71.437581 185.86273 71.530039 186.04397 71.642578 186.2168 L 76.091797 193.10742 L 77.333984 193.10742 L 77.333984 184.46289 L 76.322266 184.46289 L 76.322266 190.55078 C 76.322266 191.14965 76.34262 191.57502 76.382812 191.82422 L 76.357422 191.82422 C 76.305171 191.71972 76.18868 191.52549 76.007812 191.24414 L 71.679688 184.46289 L 70.365234 184.46289 z "
       d="m 70.365234,183.94141 a 0.52173318,0.52173318 0 0 0 -0.521484,0.52148 v 8.64453 a 0.52173318,0.52173318 0 0 0 0.521484,0.52149 h 1.013672 a 0.52173318,0.52173318 0 0 0 0.521485,-0.52149 v -5.53125 l 3.753906,5.81445 a 0.52173318,0.52173318 0 0 0 0.4375,0.23829 h 1.242187 a 0.52173318,0.52173318 0 0 0 0.521485,-0.52149 v -8.64453 a 0.52173318,0.52173318 0 0 0 -0.521485,-0.52148 h -1.011718 a 0.52173318,0.52173318 0 0 0 -0.521485,0.52148 v 5.48633 l -3.68164,-5.76758 a 0.52173318,0.52173318 0 0 0 -0.439453,-0.24023 z"
       transform="matrix(1.5625616,-0.40539873,0.51624205,0.91629514,-156.76814,32.397068)" /><path
       style="color:#000000;-inkscape-font-specification:Corbel;mix-blend-mode:darken;fill:#000000;fill-opacity:1;-inkscape-stroke:none"
       d="m 70.365234,183.63086 c -0.455276,2.2e-4 -0.404921,0.50933 -0.405142,0.96461 l 0.03504,8.13882 c 2.12e-4,0.45528 0.08128,0.70109 0.536566,0.7013 h 1.013672 c 0.455283,-2.1e-4 0.665354,0.12711 0.665566,-0.32817 l 0.168753,-5.3909 3.181306,5.33821 c 0.152864,0.23624 0.415889,0.38058 0.697266,0.38086 h 1.242187 c 0.455283,-2.1e-4 0.665354,0.12711 0.665567,-0.32817 v -8.64453 c -2.21e-4,-0.45528 -0.376755,-0.83181 -0.832032,-0.83203 h -1.011718 c -0.455277,2.2e-4 -0.417509,0.38414 -0.41773,0.83942 v 4.42383 l -3.523677,-4.87849 v -0.002 c -0.152731,-0.23833 -0.418102,-0.38291 -0.701172,-0.38281 z m -0.166465,1.12495 h 1.314453 c 0.07264,-2e-5 0.138541,0.0365 0.177735,0.0977 l 3.958441,6.52943 0.770448,-0.73053 -0.474983,-5.68562 c 5.9e-5,-0.12062 0.09032,-0.21088 0.210938,-0.21094 h 1.011718 c 0.120622,6e-5 0.210879,0.0903 0.210938,0.21094 l -0.09436,8.29318 c -5.6e-5,0.12063 -0.09031,0.21088 -0.210938,0.21094 l -0.981366,-0.15251 c -0.0722,-7e-5 -0.138512,-0.0351 -0.177735,-0.0957 l -4.019076,-7.02014 -0.666273,0.7406 0.0026,6.32445 c -5.6e-5,0.12063 -0.09031,0.21088 -0.210938,0.21094 l -0.655118,-0.16011 c -0.120623,-6e-5 -0.210881,-0.0903 -0.210937,-0.21094 l -0.166465,-8.14067 c 5.8e-5,-0.12062 0.09032,-0.21088 0.210937,-0.21094 z"
       id="path1928"
       transform="matrix(1.5625616,-0.40539874,0.51624206,0.91629513,-157.0743,32.841837)"
       sodipodi:nodetypes="cccccccccccccccccccccccccccccccccccccccccc" /><path
       style="fill:#ffffff;fill-opacity:1;fill-rule:evenodd;stroke:#000000;stroke-width:1.05833;stroke-linecap:butt;stroke-linejoin:miter;stroke-dasharray:none;stroke-opacity:1"
       d="m 195.10172,106.12645 c 0.12557,-9.117213 1.31193,-17.479795 -9.70954,-12.479086 -5.90771,2.680472 -19.5461,8.988296 -22.54769,11.545276 -3.00158,2.55699 -5.0517,5.03575 -7.75277,5.76492 -2.70107,0.72917 -4.44758,2.78855 -7.64008,5.07949 -3.1925,2.29095 -6.41027,5.14233 -12.47257,5.92755 -5.75421,0.7453 -12.53338,2.0005 -22.29091,7.12908 -4.71013,2.47567 -4.29192,4.33939 -13.769203,9.17548 -7.384585,3.76822 -24.665852,13.36756 -30.186861,12.69447 -5.52101,-0.67307 -1.843251,-7.34265 4.353927,-10.78214 6.197178,-3.4395 25.145317,-7.36374 32.869787,-8.67491 5.03754,-0.85509 1.30037,2.82003 -6.899188,7.58087 -4.37349,2.53934 -13.261455,6.74287 -15.562769,7.72465 -6.701126,2.85881 -13.020833,5.8536 -17.082761,3.99628 -3.116232,-1.42489 -4.188092,14.28562 0.239109,18.52654 6.149409,5.89066 14.906223,15.01837 23.821406,18.17176 8.845512,3.12875 40.333103,9.79917 45.547423,9.48322 5.21431,-0.31596 5.48036,-0.50687 9.36446,0.13173 3.8841,0.6386 36.73418,0.88253 42.55262,-1.68064 5.81844,-2.56315 6.98879,-15.0928 6.75298,-28.28732 -0.23582,-13.19452 0.28706,-51.91001 0.41263,-61.02722 z"
       id="path356"
       inkscape:label="finger"
       sodipodi:nodetypes="zsssssssssssssssssszz" /><path
       style="fill:#000000;fill-rule:nonzero;stroke:none;stroke-width:0.79375;stroke-linecap:round;stroke-linejoin:miter;stroke-dasharray:none;stroke-opacity:1"
       d="m 105.32412,191.67442 c 0.0152,0.0657 -0.01,0.17492 0.0852,0.38651 0.15122,0.33712 0.72708,1.25205 1.17998,1.98377 0.48281,0.78003 0.49434,0.80424 0.89954,1.46378 0.26767,0.43568 0.48274,0.77842 0.72003,1.12901 0.13592,0.20084 0.2653,0.38361 0.39029,0.5544 0.16155,0.22076 0.33209,0.43495 0.51499,0.65293 0.41736,0.48831 0.85397,0.98046 1.27469,1.52887 0.17294,0.22542 0.35325,0.46545 0.55506,0.73624 0.63642,0.85399 1.29175,1.71017 1.52649,1.98565 -0.19612,-0.30418 -0.75049,-1.22278 -1.29476,-2.14011 -0.17806,-0.3001 -0.32164,-0.54039 -0.47466,-0.79445 -0.35744,-0.59341 -0.68385,-1.17979 -1.05486,-1.7228 -0.16385,-0.23637 -0.3048,-0.44067 -0.46193,-0.66518 -0.11884,-0.16981 -0.23868,-0.3448 -0.3705,-0.5422 -0.21941,-0.32857 -0.44914,-0.68747 -0.72325,-1.10468 -0.28035,-0.42671 -0.59615,-0.89516 -0.98126,-1.42927 -0.52596,-0.72947 -1.15629,-1.54048 -1.44714,-1.81552 -0.16895,-0.15977 -0.28066,-0.17132 -0.33791,-0.20695 z"
       id="path1939"
       inkscape:path-effect="#path-effect1941"
       inkscape:original-d="m 105.32412,191.67442 c 2.58596,3.61514 2.63674,4.11022 4.05601,5.9671 1.21003,1.58312 2.2389,3.30868 3.09026,4.45406"
       sodipodi:nodetypes="csc" /><path
       style="fill:#000000;fill-rule:nonzero;stroke:none;stroke-width:1.05833;stroke-linecap:round;stroke-linejoin:round;stroke-dasharray:none;stroke-opacity:1"
       d="m 129.29379,186.08708 c 0.44801,1.17171 1.2209,2.91219 2.5802,4.67068 0.56836,0.73527 1.12063,1.32021 1.5791,1.75836 0.68772,0.65724 1.33969,1.17804 1.95549,1.59859 0.20368,0.1391 0.42387,0.28143 0.66375,0.4263 1.34889,0.81467 2.90859,1.53974 4.48029,1.9155 1.43584,0.34328 2.97503,0.35694 3.71507,0.3948 -0.58041,-0.20449 -2.20283,-0.92115 -3.39408,-1.40328 -1.55661,-0.62999 -2.82172,-1.08988 -4.23736,-1.87796 -0.22908,-0.12752 -0.44529,-0.25239 -0.64351,-0.37002 -0.58353,-0.34632 -1.28526,-0.78986 -1.98037,-1.33044 -0.47533,-0.36966 -1.06194,-0.86179 -1.68869,-1.50244 -1.50886,-1.54233 -2.45939,-3.14515 -3.02989,-4.28009 z"
       id="path1943"
       sodipodi:nodetypes="cc"
       inkscape:path-effect="#path-effect1945"
       inkscape:original-d="m 129.29379,186.08708 c 3.09476,7.01477 8.99893,9.58461 14.9739,10.76423" /></g><path
     style="fill:#000000;fill-opacity:0;fill-rule:nonzero;stroke:none;stroke-width:0.79375;stroke-linecap:round;stroke-linejoin:round;stroke-dasharray:none;stroke-opacity:1"
     d="m 81.281417,102.90885 c 0.20572,0.40051 0.53138,1.04901 0.812689,1.53817 0.178164,0.3098 0.334775,0.59209 0.503186,0.83897 0.05705,0.0836 0.115342,0.16303 0.176028,0.23766 0.232256,0.28564 0.520011,0.51008 0.748784,0.72036 0.189535,0.17422 0.4425,0.40038 0.533683,0.48385 -0.06617,-0.10816 -0.307269,-0.50731 -0.373443,-0.61547 -0.160457,-0.26325 -0.319584,-0.59034 -0.530854,-0.88016 -0.05555,-0.0762 -0.115306,-0.15185 -0.17847,-0.22833 -0.186113,-0.22535 -0.402055,-0.45824 -0.625363,-0.73148 -0.309187,-0.37833 -0.869347,-1.09221 -1.06624,-1.36357 z"
     id="path1918"
     inkscape:path-effect="#path-effect1920"
     inkscape:original-d="m 81.281417,102.90885 c 1.19365,1.9421 1.89153,2.74782 2.77437,3.81901"
     sodipodi:nodetypes="cc" /></svg>
